<svg width="40" height="40" viewBox="0 0 40 40" fill="none" xmlns="http://www.w3.org/2000/svg">
<path d="M36.5466 19.3449C36.21 18.5316 35.4883 18.3366 35 18.2899V13.3333C35 11.4949 33.505 9.99992 31.6667 9.99992H21.6667V7.68325C22.175 7.22659 22.5 6.56992 22.5 5.83325C22.5 5.17021 22.2366 4.53433 21.7678 4.06549C21.2989 3.59664 20.663 3.33325 20 3.33325C19.3369 3.33325 18.7011 3.59664 18.2322 4.06549C17.7634 4.53433 17.5 5.17021 17.5 5.83325C17.5 6.56992 17.825 7.22659 18.3333 7.68325V9.99992H8.33332C6.49498 9.99992 4.99998 11.4949 4.99998 13.3333V18.3283L4.86332 18.3383C4.44327 18.3686 4.05028 18.5568 3.76335 18.8651C3.47641 19.1733 3.31682 19.5788 3.31665 19.9999V23.3333C3.31665 23.7753 3.49225 24.1992 3.80481 24.5118C4.11737 24.8243 4.54129 24.9999 4.98332 24.9999H4.99998V33.3333C4.99998 35.1716 6.49498 36.6666 8.33332 36.6666H31.6667C33.505 36.6666 35 35.1716 35 33.3333V24.9999C35.442 24.9999 35.8659 24.8243 36.1785 24.5118C36.4911 24.1992 36.6667 23.7753 36.6667 23.3333V20.1033C36.6858 19.8446 36.6448 19.585 36.5466 19.3449ZM8.33332 33.3333V13.3333H31.6667L31.6683 19.9933L31.6667 19.9999V23.3333L31.6683 23.3416L31.67 33.3333H8.33332Z" fill="black"/>
<path d="M14.1666 23.3334C15.5473 23.3334 16.6666 21.841 16.6666 20.0001C16.6666 18.1591 15.5473 16.6667 14.1666 16.6667C12.7859 16.6667 11.6666 18.1591 11.6666 20.0001C11.6666 21.841 12.7859 23.3334 14.1666 23.3334Z" fill="black"/>
<path d="M25.8334 23.3334C27.2141 23.3334 28.3334 21.841 28.3334 20.0001C28.3334 18.1591 27.2141 16.6667 25.8334 16.6667C24.4527 16.6667 23.3334 18.1591 23.3334 20.0001C23.3334 21.841 24.4527 23.3334 25.8334 23.3334Z" fill="black"/>
<path d="M13.3334 26.6667H26.6667V30.0001H13.3334V26.6667Z" fill="black"/>
</svg>
