<svg width="40" height="40" viewBox="0 0 40 40" fill="none" xmlns="http://www.w3.org/2000/svg">
<path d="M26.6666 3.33325H13.3333C7.81825 3.33325 3.33325 7.81825 3.33325 13.3333V33.3333C3.33325 33.7753 3.50885 34.1992 3.82141 34.5118C4.13397 34.8243 4.55789 34.9999 4.99992 34.9999H26.6666C32.1816 34.9999 36.6666 30.5149 36.6666 24.9999V13.3333C36.6666 7.81825 32.1816 3.33325 26.6666 3.33325ZM33.3333 24.9999C33.3333 28.6766 30.3433 31.6666 26.6666 31.6666H6.66659V13.3333C6.66659 9.65659 9.65659 6.66659 13.3333 6.66659H26.6666C30.3433 6.66659 33.3333 9.65659 33.3333 13.3333V24.9999Z" fill="black"/>
<path d="M15.8333 21.6667C17.214 21.6667 18.3333 20.5475 18.3333 19.1667C18.3333 17.786 17.214 16.6667 15.8333 16.6667C14.4525 16.6667 13.3333 17.786 13.3333 19.1667C13.3333 20.5475 14.4525 21.6667 15.8333 21.6667Z" fill="black"/>
<path d="M24.1667 21.6667C25.5475 21.6667 26.6667 20.5475 26.6667 19.1667C26.6667 17.786 25.5475 16.6667 24.1667 16.6667C22.786 16.6667 21.6667 17.786 21.6667 19.1667C21.6667 20.5475 22.786 21.6667 24.1667 21.6667Z" fill="black"/>
</svg>
