<svg width="36" height="36" viewBox="0 0 36 36" fill="none" xmlns="http://www.w3.org/2000/svg">
<path d="M18.1166 23.9316C21.3942 23.9316 24.0598 21.266 24.0598 17.9883C24.0598 14.7107 21.3942 12.0451 18.1166 12.0451C14.8389 12.0451 12.1733 14.7107 12.1733 17.9883C12.1733 21.266 14.8389 23.9316 18.1166 23.9316ZM18.1166 15.0167C19.7272 15.0167 21.0882 16.3777 21.0882 17.9883C21.0882 19.599 19.7272 20.96 18.1166 20.96C16.5059 20.96 15.1449 19.599 15.1449 17.9883C15.1449 16.3777 16.5059 15.0167 18.1166 15.0167Z" fill="black"/>
<path d="M4.51415 24.1336L5.99996 26.7041C6.78892 28.0665 8.68777 28.5777 10.0562 27.7887L10.8422 27.334C11.7018 28.0102 12.6495 28.5661 13.6593 28.9863V29.8748C13.6593 31.5136 14.992 32.8464 16.6309 32.8464H19.6025C21.2413 32.8464 22.5741 31.5136 22.5741 29.8748V28.9863C23.5835 28.566 24.5312 28.0107 25.3912 27.3355L26.1772 27.7902C27.5486 28.5777 29.443 28.0695 30.2349 26.7041L31.7192 24.1351C32.113 23.4527 32.2198 22.6419 32.0161 21.8808C31.8125 21.1196 31.315 20.4705 30.6331 20.0759L29.8828 19.642C30.0423 18.5463 30.0423 17.4333 29.8828 16.3376L30.6331 15.9038C31.3147 15.5089 31.8119 14.8597 32.0155 14.0987C32.2191 13.3378 32.1126 12.5271 31.7192 11.8445L30.2349 9.27559C29.4459 7.90865 27.5486 7.39605 26.1772 8.18798L25.3912 8.64264C24.5316 7.96646 23.5838 7.41061 22.5741 6.99043V6.10192C22.5741 4.46308 21.2413 3.13031 19.6025 3.13031H16.6309C14.992 3.13031 13.6593 4.46308 13.6593 6.10192V6.99043C12.6499 7.41067 11.7022 7.96598 10.8422 8.64115L10.0562 8.1865C8.68332 7.39754 6.78743 7.90865 5.99847 9.27411L4.51415 11.8431C4.12039 12.5255 4.0136 13.3363 4.21725 14.0974C4.4209 14.8585 4.91833 15.5077 5.60027 15.9023L6.35061 16.3361C6.19048 17.4313 6.19048 18.5439 6.35061 19.6391L5.60027 20.0729C4.91853 20.4681 4.42133 21.1175 4.21772 21.8787C4.01412 22.64 4.12072 23.4509 4.51415 24.1336ZM9.45593 20.0358C9.28816 19.3662 9.20284 18.6786 9.20186 17.9883C9.20186 17.3019 9.28804 16.6125 9.45445 15.9409C9.53281 15.6279 9.50704 15.2979 9.38103 15.0008C9.25502 14.7037 9.03564 14.4558 8.75612 14.2946L7.08756 13.3289L8.57039 10.7599L10.2716 11.7435C10.5491 11.904 10.8711 11.9703 11.1894 11.9322C11.5076 11.8942 11.805 11.7539 12.0368 11.5325C13.0419 10.5765 14.2541 9.86518 15.5789 9.45389C15.8833 9.36098 16.1497 9.17282 16.3391 8.91711C16.5285 8.6614 16.6307 8.35166 16.6309 8.03346V6.10192H19.6025V8.03346C19.6026 8.35166 19.7049 8.6614 19.8943 8.91711C20.0836 9.17282 20.3501 9.36098 20.6544 9.45389C21.979 9.86577 23.191 10.577 24.1966 11.5325C24.4286 11.7535 24.7259 11.8935 25.0441 11.9315C25.3622 11.9695 25.6841 11.9036 25.9617 11.7435L27.6615 10.7614L29.1473 13.3303L27.4772 14.2946C27.1979 14.456 26.9787 14.7039 26.8527 15.0009C26.7267 15.2979 26.7008 15.6279 26.7789 15.9409C26.9453 16.6125 27.0315 17.3019 27.0315 17.9883C27.0315 18.6733 26.9453 19.3627 26.7774 20.0358C26.6994 20.349 26.7256 20.679 26.8518 20.976C26.9781 21.273 27.1976 21.5209 27.4772 21.682L29.1458 22.6463L27.663 25.2153L25.9617 24.2332C25.6844 24.0724 25.3623 24.006 25.0439 24.0441C24.7256 24.0821 24.4282 24.2225 24.1966 24.4442C23.1914 25.4002 21.9793 26.1115 20.6544 26.5228C20.3501 26.6157 20.0836 26.8039 19.8943 27.0596C19.7049 27.3153 19.6026 27.625 19.6025 27.9432L19.6055 29.8748H16.6309V27.9432C16.6307 27.625 16.5285 27.3153 16.3391 27.0596C16.1497 26.8039 15.8833 26.6157 15.5789 26.5228C14.2543 26.1109 13.0423 25.3997 12.0368 24.4442C11.8054 24.2219 11.5079 24.0812 11.1893 24.0434C10.8708 24.0056 10.5486 24.0727 10.2716 24.2347L8.57188 25.2183L7.08608 22.6493L8.75612 21.682C9.03574 21.5209 9.25528 21.273 9.38154 20.976C9.5078 20.679 9.53391 20.349 9.45593 20.0358Z" fill="black"/>
</svg>
