<svg width="28" height="31" viewBox="0 0 28 31" fill="none" xmlns="http://www.w3.org/2000/svg">
<path d="M23.9315 17.1564C23.162 17.3837 22.3691 17.4987 21.5729 17.4986C19.1484 17.4986 16.8716 16.4504 15.1614 14.5484C14.0384 13.2922 13.231 11.7306 12.8198 10.0193C12.4085 8.30793 12.4078 6.50658 12.8176 4.7948C12.8688 4.58077 12.8684 4.35554 12.8166 4.1417C12.7648 3.92786 12.6634 3.73292 12.5225 3.57645C12.3816 3.41998 12.2061 3.30747 12.0137 3.25021C11.8214 3.19296 11.6189 3.19296 11.4265 3.25023C9.49961 3.82131 7.74162 4.94588 6.3289 6.51112C1.90241 11.434 1.90241 19.4473 6.3289 24.3728C7.38104 25.5494 8.63257 26.4824 10.0111 27.1175C11.3895 27.7527 12.8676 28.0775 14.3597 28.0732C15.8514 28.0778 17.3291 27.7533 18.7073 27.1183C20.0854 26.4833 21.3365 25.5506 22.3882 24.374C23.7967 22.8026 24.8083 20.8464 25.3214 18.7022C25.3724 18.4883 25.372 18.2632 25.3202 18.0495C25.2684 17.8358 25.1671 17.641 25.0264 17.4845C24.8857 17.328 24.7105 17.2153 24.5184 17.1577C24.3262 17.1002 24.1239 17.0997 23.9315 17.1564ZM20.7837 22.5883C19.9422 23.5293 18.9412 24.2753 17.8387 24.7832C16.7363 25.2912 15.5542 25.5509 14.3608 25.5473C13.1671 25.5506 11.9846 25.2907 10.8818 24.7826C9.77896 24.2744 8.77764 23.5282 7.93574 22.587C4.39501 18.6479 4.39501 12.2373 7.93574 8.29817C8.61993 7.5381 9.40983 6.90568 10.275 6.42524C10.1484 8.24268 10.376 10.0691 10.9424 11.7797C11.5088 13.4903 12.4006 15.0447 13.5569 16.3367C14.716 17.6267 16.1133 18.6212 17.6521 19.2516C19.1908 19.882 20.8343 20.1332 22.4689 19.9879C22.0345 20.9485 21.4657 21.8262 20.7837 22.5883Z" fill="black"/>
</svg>
