<svg width="36" height="37" viewBox="0 0 36 37" fill="none" xmlns="http://www.w3.org/2000/svg">
<path d="M6.23019 20.1696H15.145C15.5391 20.1696 15.917 20.013 16.1956 19.7344C16.4743 19.4557 16.6308 19.0778 16.6308 18.6838V6.79733C16.6308 6.40327 16.4743 6.02535 16.1956 5.74671C15.917 5.46806 15.5391 5.31152 15.145 5.31152H6.23019C5.83613 5.31152 5.45821 5.46806 5.17957 5.74671C4.90092 6.02535 4.74438 6.40327 4.74438 6.79733V18.6838C4.74438 19.0778 4.90092 19.4557 5.17957 19.7344C5.45821 20.013 5.83613 20.1696 6.23019 20.1696ZM4.74438 30.5702C4.74438 30.9642 4.90092 31.3422 5.17957 31.6208C5.45821 31.8994 5.83613 32.056 6.23019 32.056H15.145C15.5391 32.056 15.917 31.8994 16.1956 31.6208C16.4743 31.3422 16.6308 30.9642 16.6308 30.5702V24.627C16.6308 24.2329 16.4743 23.855 16.1956 23.5763C15.917 23.2977 15.5391 23.1412 15.145 23.1412H6.23019C5.83613 23.1412 5.45821 23.2977 5.17957 23.5763C4.90092 23.855 4.74438 24.2329 4.74438 24.627V30.5702ZM19.6024 30.5702C19.6024 30.9642 19.759 31.3422 20.0376 31.6208C20.3162 31.8994 20.6942 32.056 21.0882 32.056H30.003C30.3971 32.056 30.775 31.8994 31.0537 31.6208C31.3323 31.3422 31.4888 30.9642 31.4888 30.5702V20.1696C31.4888 19.7755 31.3323 19.3976 31.0537 19.1189C30.775 18.8403 30.3971 18.6838 30.003 18.6838H21.0882C20.6942 18.6838 20.3162 18.8403 20.0376 19.1189C19.759 19.3976 19.6024 19.7755 19.6024 20.1696V30.5702ZM21.0882 15.7121H30.003C30.3971 15.7121 30.775 15.5556 31.0537 15.277C31.3323 14.9983 31.4888 14.6204 31.4888 14.2263V6.79733C31.4888 6.40327 31.3323 6.02535 31.0537 5.74671C30.775 5.46806 30.3971 5.31152 30.003 5.31152H21.0882C20.6942 5.31152 20.3162 5.46806 20.0376 5.74671C19.759 6.02535 19.6024 6.40327 19.6024 6.79733V14.2263C19.6024 14.6204 19.759 14.9983 20.0376 15.277C20.3162 15.5556 20.6942 15.7121 21.0882 15.7121Z" fill="black"/>
</svg>
