<svg width="40" height="40" viewBox="0 0 40 40" fill="none" xmlns="http://www.w3.org/2000/svg">
<path d="M11.6667 28.3549L19.0217 28.3299L35.0751 12.4299C35.7051 11.7999 36.0517 10.9633 36.0517 10.0733C36.0517 9.18325 35.7051 8.34659 35.0751 7.71659L32.4317 5.07325C31.1717 3.81325 28.9734 3.81992 27.7234 5.06825L11.6667 20.9716V28.3549ZM30.0751 7.42992L32.7234 10.0683L30.0617 12.7049L27.4184 10.0633L30.0751 7.42992ZM15.0001 22.3616L25.0501 12.4066L27.6934 15.0499L17.6451 25.0016L15.0001 25.0099V22.3616Z" fill="black"/>
<path d="M8.33333 35H31.6667C33.505 35 35 33.505 35 31.6667V17.22L31.6667 20.5533V31.6667H13.5967C13.5533 31.6667 13.5083 31.6833 13.465 31.6833C13.41 31.6833 13.355 31.6683 13.2983 31.6667H8.33333V8.33333H19.745L23.0783 5H8.33333C6.495 5 5 6.495 5 8.33333V31.6667C5 33.505 6.495 35 8.33333 35Z" fill="black"/>
</svg>
