<svg width="40" height="40" viewBox="0 0 40 40" fill="none" xmlns="http://www.w3.org/2000/svg">
<path d="M33.3334 20V17.155C33.3334 9.75169 27.535 3.55336 20.4084 3.33836C16.735 3.25336 13.3234 4.56502 10.715 7.09836C9.4291 8.33723 8.40743 9.82374 7.71166 11.4682C7.01588 13.1127 6.66042 14.8811 6.66671 16.6667V20C4.82837 20 3.33337 21.495 3.33337 23.3334V30C3.33337 31.8384 4.82837 33.3334 6.66671 33.3334H10V16.6667C9.99513 15.3275 10.2615 14.0012 10.7831 12.7678C11.3047 11.5343 12.0708 10.4193 13.035 9.49002C13.9952 8.55532 15.1342 7.82395 16.3836 7.33969C17.6331 6.85542 18.9674 6.62823 20.3067 6.67169C25.6534 6.83169 30 11.535 30 17.155V33.3334H33.3334C35.1717 33.3334 36.6667 31.8384 36.6667 30V23.3334C36.6667 21.495 35.1717 20 33.3334 20Z" fill="black"/>
<path d="M11.6666 20H15V33.3333H11.6666V20ZM25 20H28.3333V33.3333H25V20Z" fill="black"/>
</svg>
