<svg width="25" height="25" viewBox="0 0 25 25" fill="none" xmlns="http://www.w3.org/2000/svg">
<path d="M12.4989 7.68433C11.2215 7.68433 9.99632 8.1918 9.09302 9.0951C8.18972 9.9984 7.68225 11.2235 7.68225 12.501C7.68225 13.7785 8.18972 15.0036 9.09302 15.9069C9.99632 16.8102 11.2215 17.3177 12.4989 17.3177C13.7764 17.3177 15.0015 16.8102 15.9048 15.9069C16.8081 15.0036 17.3156 13.7785 17.3156 12.501C17.3156 11.2235 16.8081 9.9984 15.9048 9.0951C15.0015 8.1918 13.7764 7.68433 12.4989 7.68433ZM12.4989 15.6291C11.669 15.6291 10.8731 15.2994 10.2863 14.7126C9.69943 14.1258 9.36975 13.3299 9.36975 12.5C9.36975 11.67 9.69943 10.8741 10.2863 10.2873C10.8731 9.70046 11.669 9.37079 12.4989 9.37079C13.3288 9.37079 14.1247 9.70046 14.7116 10.2873C15.2984 10.8741 15.6281 11.67 15.6281 12.5C15.6281 13.3299 15.2984 14.1258 14.7116 14.7126C14.1247 15.2994 13.3288 15.6291 12.4989 15.6291Z" fill="black"/>
<path d="M12.499 7.68433C11.2216 7.68433 9.99644 8.1918 9.09314 9.0951C8.18984 9.9984 7.68237 11.2235 7.68237 12.501C7.68237 13.7785 8.18984 15.0036 9.09314 15.9069C9.99644 16.8102 11.2216 17.3177 12.499 17.3177C13.7765 17.3177 15.0016 16.8102 15.9049 15.9069C16.8082 15.0036 17.3157 13.7785 17.3157 12.501C17.3157 11.2235 16.8082 9.9984 15.9049 9.0951C15.0016 8.1918 13.7765 7.68433 12.499 7.68433ZM12.499 15.6291C11.6691 15.6291 10.8732 15.2994 10.2864 14.7126C9.69955 14.1258 9.36987 13.3299 9.36987 12.5C9.36987 11.67 9.69955 10.8741 10.2864 10.2873C10.8732 9.70046 11.6691 9.37079 12.499 9.37079C13.3289 9.37079 14.1249 9.70046 14.7117 10.2873C15.2985 10.8741 15.6282 11.67 15.6282 12.5C15.6282 13.3299 15.2985 14.1258 14.7117 14.7126C14.1249 15.2994 13.3289 15.6291 12.499 15.6291Z" fill="black"/>
<path d="M17.5062 8.63011C18.1264 8.63011 18.6291 8.12736 18.6291 7.50719C18.6291 6.88702 18.1264 6.38428 17.5062 6.38428C16.886 6.38428 16.3833 6.88702 16.3833 7.50719C16.3833 8.12736 16.886 8.63011 17.5062 8.63011Z" fill="black"/>
<path d="M17.5062 8.63011C18.1264 8.63011 18.6291 8.12736 18.6291 7.50719C18.6291 6.88702 18.1264 6.38428 17.5062 6.38428C16.886 6.38428 16.3833 6.88702 16.3833 7.50719C16.3833 8.12736 16.886 8.63011 17.5062 8.63011Z" fill="black"/>
<path d="M21.3885 6.36554C21.1474 5.74281 20.7789 5.1773 20.3066 4.70519C19.8343 4.23308 19.2686 3.86478 18.6458 3.62388C17.917 3.35029 17.1471 3.20236 16.3687 3.18638C15.3656 3.14263 15.0479 3.13013 12.5042 3.13013C9.96041 3.13013 9.63437 3.13013 8.63958 3.18638C7.86186 3.20154 7.09245 3.3495 6.36458 3.62388C5.74159 3.8645 5.17579 4.2327 4.70346 4.70484C4.23114 5.17699 3.86273 5.74265 3.62187 6.36554C3.34823 7.09431 3.20063 7.86433 3.18541 8.64263C3.14062 9.64471 3.12708 9.96242 3.12708 12.5072C3.12708 15.051 3.12708 15.3749 3.18541 16.3718C3.20103 17.151 3.34791 17.9197 3.62187 18.6499C3.86341 19.2726 4.23218 19.838 4.70461 20.3101C5.17705 20.7822 5.74277 21.1505 6.36562 21.3916C7.09211 21.6762 7.86184 21.8347 8.64166 21.8603C9.64478 21.9041 9.96249 21.9176 12.5062 21.9176C15.05 21.9176 15.376 21.9176 16.3708 21.8603C17.1491 21.8445 17.919 21.6969 18.6479 21.4239C19.2706 21.1824 19.8361 20.8138 20.3083 20.3416C20.7805 19.8693 21.1491 19.3038 21.3906 18.6812C21.6646 17.952 21.8114 17.1833 21.8271 16.4041C21.8719 15.402 21.8854 15.0843 21.8854 12.5395C21.8854 9.99471 21.8854 9.67179 21.8271 8.67492C21.8149 7.88562 21.6666 7.10434 21.3885 6.36554ZM20.1198 16.2947C20.1131 16.895 20.0035 17.4897 19.7958 18.053C19.6394 18.4581 19.3999 18.826 19.0928 19.1329C18.7856 19.4399 18.4177 19.6791 18.0125 19.8353C17.4554 20.042 16.867 20.1516 16.2729 20.1593C15.2833 20.2051 15.0042 20.2166 12.4667 20.2166C9.92708 20.2166 9.6677 20.2166 8.65937 20.1593C8.06554 20.152 7.47741 20.0424 6.92083 19.8353C6.51425 19.6801 6.14479 19.4413 5.83634 19.1343C5.52789 18.8272 5.28732 18.4589 5.1302 18.053C4.92546 17.4958 4.81594 16.9081 4.80624 16.3145C4.76145 15.3249 4.75103 15.0458 4.75103 12.5083C4.75103 9.96971 4.75103 9.71033 4.80624 8.70096C4.81297 8.10098 4.92255 7.50661 5.1302 6.94367C5.44791 6.12179 6.09895 5.47492 6.92083 5.16034C7.47769 4.95423 8.06564 4.84467 8.65937 4.83638C9.64999 4.79159 9.92812 4.77908 12.4667 4.77908C15.0052 4.77908 15.2656 4.77909 16.2729 4.83638C16.8671 4.84352 17.4556 4.95312 18.0125 5.16034C18.4176 5.31687 18.7856 5.55638 19.0927 5.86349C19.3998 6.1706 19.6393 6.53853 19.7958 6.94367C20.0006 7.50091 20.1101 8.08863 20.1198 8.68221C20.1646 9.67283 20.176 9.95096 20.176 12.4895C20.176 15.027 20.176 15.2999 20.1312 16.2958H20.1198V16.2947Z" fill="black"/>
<path d="M21.3887 6.36554C21.1475 5.74281 20.779 5.1773 20.3067 4.70519C19.8344 4.23308 19.2688 3.86478 18.6459 3.62388C17.9171 3.35029 17.1472 3.20236 16.3689 3.18638C15.3657 3.14263 15.048 3.13013 12.5043 3.13013C9.96053 3.13013 9.63449 3.13013 8.6397 3.18638C7.86198 3.20154 7.09257 3.3495 6.3647 3.62388C5.74171 3.8645 5.17591 4.2327 4.70359 4.70484C4.23126 5.17699 3.86285 5.74265 3.62199 6.36554C3.34835 7.09431 3.20075 7.86433 3.18553 8.64263C3.14074 9.64471 3.1272 9.96242 3.1272 12.5072C3.1272 15.051 3.1272 15.3749 3.18553 16.3718C3.20116 17.151 3.34803 17.9197 3.62199 18.6499C3.86353 19.2726 4.2323 19.838 4.70473 20.3101C5.17717 20.7822 5.74289 21.1505 6.36574 21.3916C7.09223 21.6762 7.86196 21.8347 8.64178 21.8603C9.64491 21.9041 9.96261 21.9176 12.5064 21.9176C15.0501 21.9176 15.3762 21.9176 16.3709 21.8603C17.1492 21.8445 17.9191 21.6969 18.648 21.4239C19.2707 21.1824 19.8362 20.8138 20.3084 20.3416C20.7807 19.8693 21.1493 19.3038 21.3907 18.6812C21.6647 17.952 21.8116 17.1833 21.8272 16.4041C21.872 15.402 21.8855 15.0843 21.8855 12.5395C21.8855 9.99471 21.8855 9.67179 21.8272 8.67492C21.8151 7.88562 21.6667 7.10434 21.3887 6.36554ZM20.1199 16.2947C20.1132 16.895 20.0036 17.4897 19.7959 18.053C19.6395 18.4581 19.4 18.826 19.0929 19.1329C18.7858 19.4399 18.4178 19.6791 18.0126 19.8353C17.4556 20.042 16.8672 20.1516 16.273 20.1593C15.2834 20.2051 15.0043 20.2166 12.4668 20.2166C9.9272 20.2166 9.66782 20.2166 8.65949 20.1593C8.06566 20.152 7.47754 20.0424 6.92095 19.8353C6.51437 19.6801 6.14491 19.4413 5.83646 19.1343C5.52801 18.8272 5.28744 18.4589 5.13032 18.053C4.92558 17.4958 4.81606 16.9081 4.80636 16.3145C4.76157 15.3249 4.75116 15.0458 4.75116 12.5083C4.75116 9.96971 4.75116 9.71033 4.80636 8.70096C4.8131 8.10098 4.92267 7.50661 5.13032 6.94367C5.44803 6.12179 6.09907 5.47492 6.92095 5.16034C7.47781 4.95423 8.06576 4.84467 8.65949 4.83638C9.65011 4.79159 9.92824 4.77908 12.4668 4.77908C15.0053 4.77908 15.2657 4.77909 16.273 4.83638C16.8672 4.84352 17.4557 4.95312 18.0126 5.16034C18.4177 5.31687 18.7857 5.55638 19.0928 5.86349C19.3999 6.1706 19.6394 6.53853 19.7959 6.94367C20.0007 7.50091 20.1102 8.08863 20.1199 8.68221C20.1647 9.67283 20.1762 9.95096 20.1762 12.4895C20.1762 15.027 20.1762 15.2999 20.1314 16.2958H20.1199V16.2947Z" fill="black"/>
</svg>
