<svg width="40" height="40" viewBox="0 0 40 40" fill="none" xmlns="http://www.w3.org/2000/svg">
<path d="M7.03668 32.9634C7.80981 33.7376 8.7283 34.3514 9.73938 34.7696C10.7505 35.1877 11.8342 35.402 12.9284 35.4C14.0227 35.4019 15.1067 35.1877 16.1181 34.7695C17.1294 34.3514 18.0482 33.7376 18.8217 32.9634L23.535 28.2484L21.1784 25.8917L16.465 30.6067C15.5258 31.5417 14.2545 32.0666 12.9292 32.0666C11.6039 32.0666 10.3326 31.5417 9.39335 30.6067C8.45752 29.6679 7.93203 28.3964 7.93203 27.0709C7.93203 25.7453 8.45752 24.4738 9.39335 23.535L14.1084 18.8217L11.7517 16.465L7.03668 21.1784C5.47636 22.7424 4.6001 24.8616 4.6001 27.0709C4.6001 29.2801 5.47636 31.3993 7.03668 32.9634ZM32.9634 18.8217C34.5229 17.2572 35.3986 15.1382 35.3986 12.9292C35.3986 10.7202 34.5229 8.60121 32.9634 7.03668C31.3993 5.47636 29.2802 4.6001 27.0709 4.6001C24.8616 4.6001 22.7424 5.47636 21.1784 7.03668L16.465 11.7517L18.8217 14.1084L23.535 9.39335C24.4742 8.45834 25.7456 7.9334 27.0709 7.9334C28.3961 7.9334 29.6675 8.45834 30.6067 9.39335C31.5425 10.3321 32.068 11.6036 32.068 12.9292C32.068 14.2547 31.5425 15.5262 30.6067 16.465L25.8917 21.1784L28.2484 23.535L32.9634 18.8217Z" fill="black"/>
<path d="M14.1066 28.25L11.7483 25.8933L25.8933 11.75L28.25 14.1083L14.1066 28.25Z" fill="black"/>
</svg>
