<svg width="28" height="32" viewBox="0 0 28 32" fill="none" xmlns="http://www.w3.org/2000/svg">
<path d="M8.31845 15.9755C8.31845 19.4624 10.869 22.299 14.0043 22.299C17.1396 22.299 19.6901 19.4624 19.6901 15.9755C19.6901 12.4885 17.1396 9.65195 14.0043 9.65195C10.869 9.65195 8.31845 12.4885 8.31845 15.9755ZM14.0043 12.1778C15.8871 12.1778 17.419 13.8815 17.419 15.9755C17.419 18.0694 15.8871 19.7731 14.0043 19.7731C12.1215 19.7731 10.5896 18.0694 10.5896 15.9755C10.5896 13.8815 12.1215 12.1778 14.0043 12.1778ZM12.8664 24.816H15.1376V28.6048H12.8664V24.816ZM12.8664 3.34613H15.1376V7.13493H12.8664V3.34613ZM2.64624 14.7125H6.05297V17.2384H2.64624V14.7125ZM21.9511 14.7125H25.3578V17.2384H21.9511V14.7125ZM5.16836 24.0115L7.57579 21.3316L9.18263 23.1173L6.7752 25.7973L5.16836 24.0115ZM18.8191 8.83231L21.2288 6.15237L22.8345 7.93815L20.4249 10.6181L18.8191 8.83231ZM7.57919 10.6194L5.16949 7.93942L6.77634 6.15363L9.18376 8.83357L7.57919 10.6194ZM22.8345 24.0128L21.2288 25.7985L18.8191 23.1186L20.4249 21.3328L22.8345 24.0128Z" fill="black"/>
</svg>
