<svg width="25" height="25" viewBox="0 0 25 25" fill="none" xmlns="http://www.w3.org/2000/svg">
<path d="M5.19067 7.49681C6.44941 7.49681 7.46983 6.47639 7.46983 5.21764C7.46983 3.95889 6.44941 2.93848 5.19067 2.93848C3.93192 2.93848 2.9115 3.95889 2.9115 5.21764C2.9115 6.47639 3.93192 7.49681 5.19067 7.49681Z" fill="black"/>
<path d="M5.19054 7.49681C6.44929 7.49681 7.46971 6.47639 7.46971 5.21764C7.46971 3.95889 6.44929 2.93848 5.19054 2.93848C3.93179 2.93848 2.91138 3.95889 2.91138 5.21764C2.91138 6.47639 3.93179 7.49681 5.19054 7.49681Z" fill="black"/>
<path d="M9.62192 9.22388V21.8687H13.548V15.6155C13.548 13.9655 13.8584 12.3676 15.9042 12.3676C17.9219 12.3676 17.9469 14.2541 17.9469 15.7197V21.8697H21.875V14.9353C21.875 11.5291 21.1417 8.91138 17.1605 8.91138C15.249 8.91138 13.9677 9.96034 13.4438 10.953H13.3907V9.22388H9.62192ZM3.224 9.22388H7.15629V21.8687H3.224V9.22388Z" fill="black"/>
<path d="M9.62179 9.22388V21.8687H13.5478V15.6155C13.5478 13.9655 13.8583 12.3676 15.9041 12.3676C17.9218 12.3676 17.9468 14.2541 17.9468 15.7197V21.8697H21.8749V14.9353C21.8749 11.5291 21.1416 8.91138 17.1603 8.91138C15.2489 8.91138 13.9676 9.96034 13.4437 10.953H13.3905V9.22388H9.62179ZM3.22388 9.22388H7.15617V21.8687H3.22388V9.22388Z" fill="black"/>
</svg>
