<svg width="17" height="17" viewBox="0 0 17 17" fill="none" xmlns="http://www.w3.org/2000/svg">
<path d="M9.20825 4.95837H7.79159V7.79171H4.95825V9.20837H7.79159V12.0417H9.20825V9.20837H12.0416V7.79171H9.20825V4.95837Z" fill="black"/>
<path d="M8.50008 1.41663C4.59433 1.41663 1.41675 4.59421 1.41675 8.49996C1.41675 12.4057 4.59433 15.5833 8.50008 15.5833C12.4058 15.5833 15.5834 12.4057 15.5834 8.49996C15.5834 4.59421 12.4058 1.41663 8.50008 1.41663ZM8.50008 14.1666C5.37562 14.1666 2.83341 11.6244 2.83341 8.49996C2.83341 5.3755 5.37562 2.83329 8.50008 2.83329C11.6245 2.83329 14.1667 5.3755 14.1667 8.49996C14.1667 11.6244 11.6245 14.1666 8.50008 14.1666Z" fill="black"/>
</svg>
