<svg width="36" height="37" viewBox="0 0 36 37" fill="none" xmlns="http://www.w3.org/2000/svg">
<path d="M24.0598 3.92728H12.1734C7.25684 3.92728 3.25854 7.92557 3.25854 12.8421V30.6717C3.25854 31.0658 3.41508 31.4437 3.69373 31.7224C3.97237 32.001 4.35029 32.1575 4.74435 32.1575H24.0598C28.9763 32.1575 32.9746 28.1592 32.9746 23.2427V12.8421C32.9746 7.92557 28.9763 3.92728 24.0598 3.92728ZM30.003 23.2427C30.003 26.5204 27.3375 29.1859 24.0598 29.1859H6.23015V12.8421C6.23015 9.56441 8.89568 6.89888 12.1734 6.89888H24.0598C27.3375 6.89888 30.003 9.56441 30.003 12.8421V23.2427Z" fill="black"/>
<path d="M14.402 20.2711C15.6329 20.2711 16.6307 19.2733 16.6307 18.0424C16.6307 16.8115 15.6329 15.8137 14.402 15.8137C13.1712 15.8137 12.1733 16.8115 12.1733 18.0424C12.1733 19.2733 13.1712 20.2711 14.402 20.2711Z" fill="black"/>
<path d="M21.8312 20.2711C23.0621 20.2711 24.0599 19.2733 24.0599 18.0424C24.0599 16.8115 23.0621 15.8137 21.8312 15.8137C20.6004 15.8137 19.6025 16.8115 19.6025 18.0424C19.6025 19.2733 20.6004 20.2711 21.8312 20.2711Z" fill="black"/>
</svg>
