<svg width="42" height="42" viewBox="0 0 42 42" fill="none" xmlns="http://www.w3.org/2000/svg">
<path d="M37.8401 33.4316L37.9598 36.7628L4.64801 37.9599L4.5283 34.6287L37.8401 33.4316ZM17.7333 30.8187C18.1751 30.8028 18.5924 30.6121 18.8935 30.2885C19.1947 29.9649 19.3549 29.535 19.339 29.0932L18.501 5.77495C18.4852 5.33321 18.2945 4.91586 17.9709 4.61473C17.6473 4.3136 17.2173 4.15334 16.7756 4.16921L8.44764 4.4685C8.0059 4.48438 7.58855 4.67508 7.28742 4.99867C6.98629 5.32225 6.82603 5.75221 6.84191 6.19395L7.67991 29.5122C7.69578 29.954 7.88649 30.3713 8.21007 30.6725C8.53366 30.9736 8.96361 31.1338 9.40536 31.118L17.7333 30.8187ZM10.9512 27.7269L10.2329 7.73983L15.2297 7.56025L15.948 27.5474L10.9512 27.7269ZM22.0717 12.3176L22.6702 28.9735C22.6861 29.4153 22.8768 29.8326 23.2004 30.1337C23.524 30.4349 23.9539 30.5951 24.3957 30.5792L32.7236 30.28C33.1654 30.2641 33.5827 30.0734 33.8839 29.7498C34.185 29.4262 34.3452 28.9963 34.3294 28.5545L33.7308 11.8986C33.7149 11.4569 33.5242 11.0395 33.2006 10.7384C32.877 10.4372 32.4471 10.277 32.0053 10.2929L23.6774 10.5922C23.2357 10.608 22.8183 10.7987 22.5172 11.1223C22.216 11.4459 22.0558 11.8759 22.0717 12.3176ZM30.4595 13.6839L30.9383 27.0086L25.9416 27.1882L25.4627 13.8635L30.4595 13.6839Z" fill="black"/>
</svg>
